<?xml version="1.0" encoding="UTF-8" standalone="no"?>
<!-- Created with Inkscape (http://www.inkscape.org/) -->

<svg
   width="250mm"
   height="100mm"
   viewBox="0 0 250 100"
   version="1.1"
   id="svg1"
   xml:space="preserve"
   inkscape:version="1.4.4 (dcaf3e7d9e, 2026-05-05)"
   sodipodi:docname="millipede.svg"
   xmlns:inkscape="http://www.inkscape.org/namespaces/inkscape"
   xmlns:sodipodi="http://sodipodi.sourceforge.net/DTD/sodipodi-0.dtd"
   xmlns="http://www.w3.org/2000/svg"
   xmlns:svg="http://www.w3.org/2000/svg"><sodipodi:namedview
     id="namedview1"
     pagecolor="#ffffff"
     bordercolor="#111111"
     borderopacity="1"
     inkscape:showpageshadow="0"
     inkscape:pageopacity="0"
     inkscape:pagecheckerboard="1"
     inkscape:deskcolor="#d1d1d1"
     inkscape:document-units="mm"
     inkscape:zoom="0.50394254"
     inkscape:cx="636.97738"
     inkscape:cy="373.0584"
     inkscape:window-width="1920"
     inkscape:window-height="1011"
     inkscape:window-x="0"
     inkscape:window-y="0"
     inkscape:window-maximized="1"
     inkscape:current-layer="layer1" /><defs
     id="defs1" /><g
     inkscape:label="Layer 1"
     inkscape:groupmode="layer"
     id="layer1"><path
       style="fill:#999999;stroke-width:0.804883"
       d="m 83.659196,71.777816 c -0.114228,-0.300446 -0.207688,-0.918636 -0.207688,-1.373749 0,-1.043257 -0.332071,-2.698739 -0.887773,-4.42584 -0.683061,-2.122918 -3.357355,-4.727992 -4.853622,-4.727992 -0.238921,0 -0.434401,0.03115 -0.434401,0.06914 0,0.03807 0.239705,0.773943 0.532679,1.635328 0.753103,2.214216 1.068018,5.045616 0.744269,6.691753 -0.329678,1.676281 -0.539088,2.038711 -1.177962,2.038711 -0.466383,0 -0.524903,-0.09078 -0.524903,-0.814307 0,-1.670341 -0.668463,-4.8386 -1.296773,-6.146204 -0.912664,-1.899394 -3.435918,-4.110744 -4.692586,-4.112539 l -0.558919,-7.89e-4 0.391305,0.798588 c 0.985968,2.012215 1.336384,5.474843 0.807112,7.97546 -0.348649,1.647241 -0.735617,2.299791 -1.3638,2.299791 -0.522506,0 -0.526941,-0.0165 -0.528537,-1.969869 -0.0032,-3.978494 -0.572323,-5.82978 -2.379369,-7.740467 -1.188706,-1.25688 -1.998029,-1.789423 -2.71945,-1.789423 -0.523604,0 -0.52518,0.01545 -0.104039,1.018394 0.438883,1.045229 0.693753,4.062162 0.479654,5.67777 -0.365029,2.754549 -1.397374,4.803595 -2.420134,4.803595 -0.618611,0 -0.605122,0.159278 -0.178932,-2.112993 0.455017,-2.425965 0.32759,-5.073489 -0.313417,-6.51183 -0.535577,-1.201762 -2.479339,-3.300855 -3.056593,-3.300855 -0.208974,0 -0.378815,0.02398 -0.377425,0.0532 0.0014,0.0293 0.144,0.580313 0.31691,1.224508 0.600555,2.237445 0.286629,4.79471 -0.873555,7.116023 -0.719641,1.439879 -1.494332,2.219633 -2.368054,2.383547 -0.394891,0.07405 -0.764138,0.08854 -0.820549,0.03211 -0.05641,-0.05642 0.142476,-0.59043 0.441972,-1.186719 0.787836,-1.568547 1.434637,-4.220997 1.295087,-5.310993 -0.158702,-1.239592 -0.781874,-2.383338 -1.799449,-3.302658 -0.960941,-0.868155 -2.036202,-1.485532 -2.237207,-1.28452 -0.07341,0.0734 -0.133479,0.624443 -0.133479,1.224516 0,4.155407 -3.228876,8.549413 -6.61629,9.003761 -0.460491,0.06173 -0.837257,0.04065 -0.837257,-0.047 0,-0.08761 0.506258,-0.706115 1.125019,-1.374449 1.159421,-1.252317 2.554742,-3.657998 2.803024,-4.832716 0.11179,-0.528921 0.03211,-0.793413 -0.38494,-1.277751 -0.503314,-0.584522 -0.599852,-0.609481 -2.246733,-0.580803 -2.54899,0.04443 -2.595964,0.06833 -3.298398,1.680723 -1.102647,2.531058 -3.641472,4.691451 -5.004751,4.25877 -0.70027,-0.22226 -0.536229,-0.7049 0.689604,-2.028947 0.91416,-0.987398 2.210431,-2.98964 1.998639,-3.087119 -0.02591,-0.01191 -1.698423,0.01642 -3.71669,0.06302 -3.479388,0.08033 -3.658744,0.104941 -3.460575,0.475219 0.391652,0.731807 0.259553,0.901323 -0.579689,0.74388 -1.744185,-0.327206 -3.001865,-1.340392 -3.935458,-3.170381 l -0.44462,-0.871526 -0.811301,0.914225 c -0.712795,0.803217 -2.325106,3.729721 -2.629163,4.772189 -0.145206,0.497844 -0.817284,0.472796 -1.288616,-0.04805 -0.805404,-0.889958 -0.05961,-3.194852 1.832566,-5.663579 l 1.022252,-1.333731 -0.524696,-1.291289 c -0.618006,-1.520922 -0.697978,-3.455755 -0.19264,-4.660688 0.459072,-1.094608 0.26836,-1.823413 -0.971266,-3.711676 -2.868336,-4.3692 -7.051581,-6.078416 -12.138301,-4.959541 -2.125963,0.467629 -2.730966,0.421766 -3.0277028,-0.229496 -0.371754,-0.81591 -0.02132,-1.189496 1.6603098,-1.769985 1.807611,-0.623969 5.378346,-0.847364 7.384951,-0.462011 0.731231,0.140428 2.104721,0.627205 3.052201,1.081738 2.060225,0.988332 3.873827,2.785787 5.158914,5.112992 l 0.826568,1.496856 0.986274,-1.697424 c 2.370655,-4.080032 6.467273,-7.037098 10.957386,-7.909398 2.019124,-0.392259 6.001207,-0.162361 7.606855,0.43916 4.770661,1.787218 7.778892,6.684888 7.769658,12.649695 -0.0019,1.181817 -0.132554,2.697885 -0.290499,3.369045 l -0.287172,1.22029 0.663176,0.09937 c 1.639829,0.245706 4.254704,0.308383 4.623828,0.110832 1.034468,-0.55363 1.605406,-3.4389 1.254329,-6.338844 -0.666386,-5.504421 -2.870485,-8.746271 -7.355331,-10.818392 -1.441799,-0.666153 -5.278562,-1.743738 -7.549261,-2.120262 l -0.958313,-0.158908 1.490709,-0.29862 c 1.818781,-0.364338 5.804321,-0.229504 7.646871,0.258698 2.994262,0.793372 5.817318,2.948147 7.426416,5.668433 1.938795,3.277667 2.761643,8.537558 1.950175,12.466117 -0.18296,0.885765 -0.293353,1.649792 -0.245317,1.697827 0.04804,0.04805 1.147504,0.147994 2.443261,0.222132 l 2.355921,0.134793 0.537094,-0.579531 c 0.685929,-0.74013 0.992544,-2.185892 0.987878,-4.658097 -0.0076,-4.037983 -1.270415,-7.367862 -3.657605,-9.644794 -1.552115,-1.480429 -3.952179,-3.025554 -6.253847,-4.026127 -0.88449,-0.384509 -1.674737,-0.770265 -1.756105,-0.857248 -0.23592,-0.252194 3.8954,0.105657 5.23565,0.453511 2.231657,0.579209 3.418507,1.273227 5.149822,3.011371 1.884344,1.891772 2.933633,3.782425 3.634287,6.548403 0.695305,2.744867 0.560458,8.205206 -0.240142,9.723955 -0.164285,0.311651 0.03509,0.374238 1.674272,0.525621 2.956621,0.273056 4.015718,0.218332 4.514746,-0.233288 0.677105,-0.612765 1.072794,-2.30041 1.072794,-4.575539 0,-4.96726 -2.189772,-8.794613 -6.601714,-11.538675 -0.292818,-0.182121 -1.394878,-0.791876 -2.449023,-1.354996 -1.054144,-0.563128 -1.964542,-1.070477 -2.023106,-1.127447 -0.234246,-0.227862 3.602886,0.186065 4.691821,0.506134 3.337036,0.980846 6.182757,3.285128 7.523302,6.091906 1.120783,2.346643 1.437613,3.772477 1.552532,6.986855 0.0983,2.749616 -0.04819,3.936705 -0.663551,5.377203 -0.147619,0.34556 0.07609,0.372677 3.07434,0.372677 h 3.233543 l 0.584765,-0.585641 c 1.399331,-1.401413 1.337972,-6.083366 -0.123382,-9.414509 -1.348478,-3.073838 -4.085883,-5.263698 -9.198449,-7.35855 l -1.144276,-0.46886 1.253572,-0.141828 c 1.391081,-0.157379 4.098735,0.153933 5.43291,0.624661 1.214895,0.42864 3.143191,1.63829 3.946932,2.475979 1.826718,1.903869 3.129907,5.183114 3.492824,8.789068 0.207033,2.057078 0.04684,4.747454 -0.339805,5.707003 -0.132902,0.329825 -0.0068,0.37225 1.097126,0.368982 2.290237,-0.0064 5.243969,-0.407745 5.639327,-0.765539 1.237583,-1.119994 0.202066,-8.894982 -1.548912,-11.629716 -0.80291,-1.254006 -1.793885,-2.134025 -3.212748,-2.853018 -1.232063,-0.624332 -4.122251,-1.509638 -5.581268,-1.709619 -0.528244,-0.07236 -0.914395,-0.206147 -0.858114,-0.297211 0.205997,-0.33331 3.190115,-0.674886 5.18505,-0.593504 1.747402,0.07131 2.259116,0.181774 3.467888,0.748766 1.774054,0.832152 2.953088,2.033198 3.908268,3.981247 1.296699,2.64457 2.192979,7.46935 1.969019,10.599465 -0.083,1.159804 -0.0431,1.458029 0.19492,1.458029 0.44561,0 8.25573,-1.305584 8.34861,-1.395602 0.0439,-0.04258 -0.0878,-0.488693 -0.29284,-0.991342 -2.16913,-5.318414 -3.10149,-11.669412 -2.11782,-14.426062 1.13225,-3.173016 4.99868,-5.447662 10.79113,-6.348478 1.4567,-0.226551 1.37865,-9.7e-5 -0.31104,0.902305 -2.54428,1.358827 -5.91646,3.572721 -6.56225,4.308238 -0.37963,0.432375 -0.88602,1.222255 -1.12529,1.75528 -0.85527,1.905245 -0.39838,5.850176 1.32396,11.431505 0.98018,3.176332 0.57919,2.987691 4.71516,2.218159 1.92947,-0.358993 3.63084,-0.697768 3.78081,-0.75283 0.20577,-0.07558 0.15937,-0.322179 -0.18913,-1.005299 -1.78192,-3.492844 -2.76759,-9.673335 -2.10224,-13.181721 0.29099,-1.534388 1.29523,-3.629151 2.33545,-4.871584 1.10908,-1.324676 3.04977,-2.569443 5.44726,-3.49389 1.96489,-0.757644 5.97883,-1.693521 6.7666,-1.577675 0.28505,0.04193 -0.80088,0.748694 -3.16267,2.058439 -1.97821,1.097031 -4.0807,2.352326 -4.6722,2.789546 -2.55324,1.887272 -3.91322,4.201494 -4.1039,6.98345 -0.20454,2.984207 0.65371,7.252346 1.99013,9.897093 0.85668,1.695332 0.9312,1.710311 4.96565,0.998111 1.92578,-0.33995 3.5878,-0.704474 3.69336,-0.810042 0.11396,-0.113955 0.0619,-0.39589 -0.12806,-0.693873 -0.49208,-0.771818 -1.33972,-3.687916 -1.71983,-5.916643 -0.94673,-5.551066 0.0842,-9.83717 3.16705,-13.16692 2.4507,-2.646977 6.35309,-4.200891 11.18473,-4.453713 1.34696,-0.07051 2.4011,-0.07558 2.34254,-0.01143 -0.0586,0.06423 -0.84547,0.410087 -1.74868,0.768638 -4.87858,1.936676 -7.36252,3.406279 -9.4575,5.595487 -1.60433,1.676474 -2.29018,2.993374 -2.75583,5.291499 -0.58167,2.870597 0.0319,7.252313 1.46227,10.441362 0.83518,1.862153 0.63538,1.820685 5.08492,1.055411 2.14384,-0.368709 3.93247,-0.704965 3.97473,-0.747229 0.0423,-0.04226 -0.22865,-0.993829 -0.60204,-2.114587 -1.28724,-3.863839 -1.63232,-8.018015 -0.94378,-11.361279 0.98941,-4.804119 4.57906,-8.371841 9.69393,-9.634709 1.86452,-0.460353 7.08394,-0.722946 8.38893,-0.422049 l 0.63887,0.147302 -0.63887,0.164454 c -0.77769,0.20019 -2.9759,0.814637 -5.05777,1.41376 -2.62602,0.755728 -5.58798,2.433562 -7.29846,4.134287 -2.32376,2.310519 -3.09229,4.327579 -3.10271,8.14335 -0.008,3.064703 1.06122,7.431818 2.1165,8.641613 0.34215,0.392252 0.90009,0.39667 7.59256,0.06021 0.55676,-0.02801 0.54357,-0.137079 -0.26435,-2.186535 -0.78978,-2.003474 -1.33284,-4.812683 -1.33284,-6.894777 0,-6.175163 3.46483,-10.950676 9.26369,-12.767996 1.8843,-0.590526 5.55388,-0.794733 7.95975,-0.442943 1.84643,0.269982 3.96938,0.82956 3.79789,1.001056 -0.057,0.05699 -1.48513,0.23567 -3.1737,0.397113 -4.90617,0.469078 -7.57887,1.254176 -10.19872,2.995854 -1.79263,1.191741 -2.83698,2.36076 -3.60425,4.034513 -0.73992,1.614064 -1.06325,3.134889 -1.06325,5.001082 0,3.508788 1.57364,7.793089 3.12145,8.498319 0.54413,0.24792 4.69035,0.648148 6.81159,0.657509 l 1.09525,0.0048 -0.64204,-1.650428 c -2.58804,-6.652844 -0.98057,-13.817216 3.81426,-16.999843 3.49286,-2.318431 8.27991,-2.972576 13.10012,-1.790115 0.90152,0.221158 2.0515,0.622263 2.5555,0.891351 l 0.91638,0.489248 -4.15269,0.130641 c -5.51785,0.173573 -7.64531,0.71315 -10.30171,2.612761 -2.83747,2.029093 -4.0814,4.5788 -4.0642,8.330446 0.0148,3.235619 1.1578,6.896281 2.44023,7.815578 0.55495,0.397805 1.908,0.691434 4.25917,0.924287 0.76133,0.07542 1.8154,0.216199 2.34238,0.312882 0.52698,0.09668 0.98704,0.146891 1.02235,0.11158 0.0353,-0.03533 -0.12768,-0.674258 -0.36221,-1.419885 -0.74453,-2.367143 -0.94129,-3.914779 -0.81743,-6.429699 0.18534,-3.763325 1.17731,-6.133889 3.40477,-8.136565 1.23254,-1.108163 3.58703,-2.294439 5.22827,-2.63418 1.83785,-0.380452 5.0788,-0.289629 6.98308,0.195691 1.41359,0.360258 4.77239,1.738724 4.77239,1.958602 0,0.03646 -1.71598,0.03075 -3.81329,-0.01288 -4.3488,-0.09031 -6.46383,0.211379 -8.68302,1.23857 -3.96142,1.833586 -5.68169,6.026187 -4.66115,11.360047 0.32849,1.716847 1.08023,3.414143 1.80038,4.064906 0.29124,0.263189 1.46887,0.616758 3.3674,1.011021 1.60574,0.333463 3.0916,0.660905 3.30192,0.727654 0.46161,0.146513 0.46391,0.08676 0.0538,-1.39804 -0.51434,-1.862418 -0.62596,-5.365468 -0.23007,-7.220561 1.21405,-5.68895 5.19836,-8.663908 11.02953,-8.235413 2.06639,0.151841 3.60318,0.550845 5.18152,1.345289 1.251,0.629691 2.29905,1.341175 2.16825,1.471961 -0.0508,0.05079 -1.03665,-0.06866 -2.19083,-0.26537 -3.29879,-0.562299 -7.25801,-0.151914 -9.44488,0.978987 -1.06689,0.551722 -2.43976,2.041302 -3.09846,3.361897 -1.08561,2.176443 -1.22693,5.74988 -0.33913,8.575476 0.63089,2.007924 0.92661,2.210505 4.35862,2.98584 1.61342,0.364491 2.97644,0.61976 3.02893,0.567266 0.0525,-0.05248 -0.0604,-0.756389 -0.25086,-1.564209 -0.90125,-3.822492 0.39536,-8.294846 3.14207,-10.837816 2.05984,-1.907048 4.60062,-2.546076 7.70559,-1.93802 1.64829,0.32279 4.588,1.607149 5.09849,2.227537 0.22145,0.26912 0.13885,0.291729 -0.59466,0.162771 -5.9095,-1.038918 -10.08201,0.378746 -11.81751,4.015173 -1.07159,2.245308 -1.23622,5.750982 -0.36691,7.813203 0.43163,1.023956 0.9197,1.313013 3.34664,1.98204 1.11271,0.306732 2.18151,0.60441 2.37511,0.661508 0.30604,0.09025 0.32691,-0.0016 0.15984,-0.702573 -0.35883,-1.505742 -0.2461,-4.527988 0.22589,-6.055792 0.94342,-3.053877 3.21074,-5.383416 5.86398,-6.024948 1.13948,-0.275511 3.17013,-0.145498 4.58263,0.293404 1.2012,0.373248 3.78018,1.839261 3.58086,2.035532 -0.0391,0.03847 -0.59814,-0.02753 -1.24234,-0.146634 -0.6442,-0.11913 -2.12958,-0.174418 -3.30086,-0.122865 -1.79605,0.07904 -2.32317,0.188938 -3.36564,0.701568 -1.47556,0.725602 -2.55057,1.8556 -3.31376,3.483274 -0.50082,1.068087 -0.56077,1.448813 -0.55736,3.539366 0.004,2.321466 0.28009,3.416453 0.96964,3.842622 0.28735,0.177589 4.42401,1.374836 4.75068,1.374948 0.1633,6.5e-5 0.23869,-0.823885 0.23869,-2.608736 0,-2.235425 0.0708,-2.783992 0.49419,-3.832634 0.63831,-1.580684 2.37207,-3.483893 3.76433,-4.132242 1.37811,-0.641749 3.57059,-0.677872 5.28767,-0.08711 1.2142,0.417742 3.24747,1.664739 3.04482,1.867384 -0.0604,0.06045 -0.61824,-0.01505 -1.23947,-0.167866 -1.8012,-0.443008 -3.92478,-0.355581 -5.2241,0.21508 -1.30902,0.574928 -2.68137,1.978627 -3.30904,3.38466 -0.6196,1.387932 -0.76454,4.167674 -0.27148,5.206713 0.40941,0.862769 0.51415,0.917727 2.56409,1.345361 0.81989,0.171037 1.64656,0.359122 1.83705,0.417967 0.2972,0.09181 0.35925,-0.158224 0.43728,-1.762395 0.11208,-2.303831 0.765,-3.873143 2.18606,-5.254257 2.19647,-2.134717 4.99069,-2.053754 7.67824,0.222486 l 0.63888,0.541107 -0.63888,-0.135285 c -1.62287,-0.343645 -3.63504,-0.375357 -4.36671,-0.06882 -2.25277,0.943814 -3.57267,3.504958 -3.10127,6.017729 0.1743,0.929132 0.47317,1.063451 2.81054,1.26315 l 1.73131,0.147921 0.0871,-1.343389 c 0.28425,-4.381917 4.26605,-6.643807 7.85703,-3.512117 1.713,1.4939 1.65828,3.966642 1.16217,5.193863 -0.71659,1.772617 -1.95615,2.236728 -4.50799,2.44248 -2.31095,0.186331 -4.96982,-0.105383 -6.54648,-0.458541 l -0.82805,-0.185477 1.04101,1.087291 c 1.5398,1.60826 1.5734,1.651233 1.5734,2.01182 0,0.265499 -0.17363,0.308978 -0.86397,0.216385 -1.04607,-0.140307 -2.74813,-1.142434 -4.42658,-2.606258 -1.1307,-0.986126 -1.45426,-1.140164 -3.52857,-1.679822 -1.25604,-0.326782 -2.31877,-0.559096 -2.36161,-0.51626 -0.0428,0.04282 0.20947,0.74706 0.56067,1.564941 0.73882,1.720582 0.91442,3.348215 0.37321,3.459603 -0.50034,0.102968 -1.59027,-0.896261 -2.45914,-2.254525 -1.53252,-2.395716 -3.85328,-4.254383 -5.79761,-4.643254 -0.63069,-0.126141 -0.69727,-0.09645 -0.58712,0.261893 0.22908,0.74524 0.77633,4.179376 0.77304,4.850954 -0.005,0.94725 -0.31051,1.363535 -0.78928,1.074253 -0.39451,-0.238374 -0.7335,-0.855349 -2.19237,-3.990278 -1.11528,-2.396586 -2.0266,-3.424622 -3.32579,-3.751767 -0.53993,-0.135952 -1.03421,-0.194685 -1.09839,-0.130503 -0.0642,0.06415 0.0856,0.571603 0.33295,1.127616 0.74367,1.672015 0.94894,2.578401 0.95962,4.237513 0.0182,2.817669 -0.71813,2.647911 -1.83141,-0.422249 -0.43629,-1.203171 -1.04469,-2.565933 -1.352,-3.028354 -0.97782,-1.471358 -2.06873,-2.863869 -2.24359,-2.863869 -0.0931,0 -0.16921,0.91466 -0.16921,2.032578 0,2.311888 -0.48215,4.574244 -1.09259,5.126691 -0.73546,0.665581 -0.90785,0.09795 -1.18423,-3.899181 -0.14269,-2.063574 -0.34846,-3.840972 -0.45727,-3.949792 -0.21903,-0.219024 -3.25509,-1.058614 -3.37922,-0.934476 -0.043,0.04298 0.11047,0.556463 0.34092,1.141146 0.73532,1.8655 0.9336,3.53271 0.66247,5.570149 -0.26501,1.991416 -0.47784,2.420032 -1.15371,2.323462 -0.39313,-0.05618 -0.46224,-0.26058 -0.59739,-1.767184 -0.20397,-2.273551 -0.53725,-3.652927 -1.1358,-4.700851 -0.56132,-0.982746 -2.37777,-3.072132 -2.67083,-3.072132 -0.10628,0 -0.19489,0.886441 -0.19692,1.969869 -0.006,3.216246 -0.80534,6.122556 -1.68383,6.122556 -0.45678,0 -0.54611,-0.676834 -0.78025,-5.91158 l -0.13582,-3.036637 -0.56159,-0.127058 c -0.30888,-0.06986 -1.25637,-0.298789 -2.10554,-0.50867 -0.84917,-0.209881 -1.54395,-0.359992 -1.54395,-0.333592 0,0.0264 0.23561,0.627841 0.52356,1.336516 0.28797,0.708667 0.61492,1.855705 0.72656,2.548958 0.35536,2.206593 -0.30158,6.022654 -1.08511,6.303212 -0.14932,0.05344 -0.43919,0.01095 -0.64417,-0.09446 -0.3193,-0.16422 -0.3734,-0.518489 -0.37773,-2.473484 -0.004,-1.881405 -0.0904,-2.489212 -0.4913,-3.463716 -0.49283,-1.197882 -2.24932,-4.035576 -2.49795,-4.035576 -0.0745,0 -0.24757,0.800914 -0.38451,1.779813 -0.33655,2.405769 -0.77506,4.02801 -1.52343,5.635827 -0.52923,1.137025 -0.70177,1.33567 -1.10982,1.277751 -0.70204,-0.09964 -0.70856,-0.850664 -0.0459,-5.284118 0.31427,-2.10249 0.51981,-3.957116 0.45677,-4.121393 -0.074,-0.192729 -0.74397,-0.385563 -1.88856,-0.543553 -0.97567,-0.134665 -2.14755,-0.301388 -2.60418,-0.370487 l -0.83023,-0.125635 0.44746,0.628404 c 0.90554,1.271715 1.53243,3.689984 1.53243,5.911436 0,2.523097 -0.31318,3.943248 -0.86961,3.943248 -0.54723,0 -0.74038,-0.472788 -1.03646,-2.537086 -0.474,-3.304695 -1.12326,-4.76092 -3.12711,-7.013779 l -0.8237,-0.926049 1e-5,4.013949 c 0,3.587055 -0.0452,4.104539 -0.42565,4.86578 -0.77423,1.549391 -0.99781,1.194261 -1.64652,-2.615417 -0.32472,-1.906984 -0.75786,-4.158369 -0.96252,-5.003077 -0.42038,-1.734997 -0.49629,-1.7837 -2.85739,-1.832967 l -1.20751,-0.02519 0.6015,1.224508 c 0.33083,0.673485 0.70651,1.732349 0.83484,2.353026 0.65093,3.148289 -0.23479,7.895108 -1.43055,7.666699 -0.30953,-0.05916 -0.37639,-0.483493 -0.48331,-3.067649 -0.11426,-2.762131 -0.17543,-3.108786 -0.77431,-4.388566 -0.49859,-1.065471 -0.95649,-1.644399 -1.96332,-2.482306 -0.7222,-0.601013 -1.45186,-1.092756 -1.62147,-1.092756 -0.25489,0 -0.30838,0.530586 -0.30838,3.058835 0,3.13051 -0.15989,4.465842 -0.78117,6.524297 -0.42169,1.397155 -0.63066,1.703671 -1.16154,1.703671 -0.3702,0 -0.39989,-0.201253 -0.40057,-2.715223 -6.8e-4,-2.549135 -0.29927,-7.01142 -0.54213,-8.10173 -0.10741,-0.482197 -0.13674,-0.486624 -2.28523,-0.345029 -1.19704,0.07888 -2.28525,0.202871 -2.41825,0.275511 -0.15877,0.08672 0.11599,0.75366 0.80014,1.942214 1.4163,2.460502 2.37897,4.981168 2.20496,5.773454 -0.16769,0.763528 -0.30796,0.767754 -0.98367,0.0297 -0.56989,-0.622504 -3.13656,-4.129248 -3.54604,-4.844805 -0.35894,-0.627245 -0.31424,-0.08875 0.17677,2.129591 0.79432,3.588657 0.7504,5.856333 -0.0969,5.004526 -0.40371,-0.405854 -2.2231,-4.837183 -3.01652,-7.347073 -0.33323,-1.054146 -0.61782,-1.941167 -0.63242,-1.971165 -0.0609,-0.125175 -5.20593,0.679224 -5.20593,0.813922 0,0.081 0.27311,0.260379 0.60689,0.398642 0.95946,0.397419 2.30384,1.930237 2.81329,3.207626 0.82506,2.068725 0.80738,6.615627 -0.0263,6.760836 -0.61008,0.106268 -0.83931,-0.321599 -1.16119,-2.16742 -0.42027,-2.409979 -1.00991,-3.762246 -2.05036,-4.702237 -0.85309,-0.770707 -4.33417,-2.625003 -4.54053,-2.418639 -0.0633,0.06326 0.0821,0.681783 0.32296,1.374481 1.19062,3.423697 1.63186,6.973631 0.93832,7.549219 -0.19619,0.16282 -0.40508,0.194757 -0.51869,0.07928 -0.10462,-0.106309 -0.8299,-1.774501 -1.61173,-3.707104 -0.78183,-1.932595 -1.57349,-3.884162 -1.75927,-4.336803 l -0.33775,-0.822993 -1.10957,0.130407 c -0.61026,0.07172 -1.30429,0.202493 -1.54228,0.290595 -0.4162,0.154071 -0.40468,0.204657 0.30189,1.325207 1.1856,1.880222 1.62249,3.28149 1.74311,5.590754 0.0903,1.728775 0.0473,2.163597 -0.26052,2.63335 -0.32071,0.489465 -0.40852,0.522804 -0.67503,0.256283 -0.16851,-0.168502 -0.54776,-1.257669 -0.8428,-2.420386 -0.81875,-3.226613 -1.59509,-4.239325 -4.29447,-5.601975 -1.3347,-0.673751 -2.11801,-0.695644 -1.84716,-0.05159 0.0798,0.189864 0.51813,1.399345 0.97397,2.687745 0.70899,2.00394 0.82061,2.558013 0.77214,3.833252 -0.044,1.157921 -0.12797,1.490707 -0.37609,1.490707 -0.20213,0 -1.02332,-1.424915 -2.23607,-3.88 -1.05415,-2.134001 -1.98234,-3.940649 -2.06264,-4.014762 -0.12939,-0.119421 -3.134,0.303191 -3.34442,0.470405 -0.0457,0.0363 0.26158,0.447571 0.68288,0.913896 1.02507,1.134627 1.6064,2.325362 1.96787,4.030779 0.91264,4.305816 -0.39497,6.976786 -1.41279,2.88581 -0.63783,-2.563656 -1.0365,-3.442716 -2.02062,-4.45529 -1.45617,-1.498297 -4.67568,-2.909643 -4.24394,-1.860438 1.07548,2.613639 1.44048,3.943176 1.54111,5.613629 0.18922,3.141102 -0.15165,2.845847 -2.94219,-2.548492 l -1.58165,-3.057426 -1.26049,0.129739 c -1.47711,0.152042 -1.57867,0.215539 -1.14051,0.713077 0.58732,0.666918 1.43809,2.569483 1.76051,3.936962 0.42257,1.792353 0.42491,4.284623 0.004,4.633677 -0.57121,0.47406 -0.87839,0.07091 -1.37328,-1.80247 -0.73409,-2.778833 -1.58457,-4.286466 -3.10156,-5.498104 -1.469197,-1.173447 -1.879834,-1.317295 -3.196709,-1.119817 l -0.955183,0.143237 0.625192,0.785605 c 1.395273,1.753276 2.165222,4.075652 2.117268,6.386252 -0.03749,1.806486 -0.228398,2.48192 -0.721528,2.552789 -0.36653,0.05272 -0.488969,-0.18831 -0.895956,-1.763465 -0.650383,-2.517165 -1.56612,-4.334107 -2.772631,-5.501267 -1.808526,-1.749541 -2.355001,-2.059976 -3.626263,-2.059976 h -1.144156 l 0.733933,0.905074 c 1.454612,1.793801 2.063042,3.653354 2.063042,6.305297 0,2.76927 -1.049946,2.92805 -1.727203,0.261192 -0.7938,-3.125777 -2.01343,-4.958229 -4.318319,-6.488134 -0.824836,-0.547489 -1.374599,-0.74842 -2.162125,-0.790217 -0.580826,-0.03083 -1.06973,0.03292 -1.086454,0.141563 -0.01673,0.108691 0.165596,0.580948 0.405157,1.049454 0.70632,1.381355 1.028296,2.845259 1.124871,5.114368 0.0905,2.126355 -0.151237,3.685026 -0.618255,3.98635 -0.453137,0.292365 -0.784918,0.164324 -0.993116,-0.383277 z M 235.71874,60.636691 c 0.18152,-0.907721 -0.48464,-1.440206 -1.04129,-1.629186 -0.37925,-0.128749 -1.35401,-0.276042 -2.05611,0.931425 -0.62286,1.071188 -0.12552,2.122578 0.16963,2.334077 0.34577,0.247767 1.85331,0.259212 2.23273,-0.07518 0.37943,-0.334413 0.5495,-0.833343 0.65769,-1.374358 z M 38.943183,59.451355 c 0,-0.0524 -0.239578,-0.545799 -0.532396,-1.096516 -1.550109,-2.915349 0.706726,-7.147188 4.079908,-7.65032 0.994641,-0.148356 2.178006,0.393145 2.568943,1.175539 0.796061,1.593185 7.09e-4,4.509974 -1.651092,6.055035 -0.581915,0.544318 -1.058027,1.033734 -1.058027,1.087605 0,0.202291 0.95472,0.08225 3.438759,-0.432391 5.270734,-1.091976 6.559375,-2.305087 6.562465,-6.177851 0.0027,-3.421797 -0.951534,-6.155468 -2.850617,-8.166137 -1.842003,-1.950238 -3.842881,-2.795011 -6.618211,-2.794206 -5.645651,0.0016 -11.263035,4.308005 -13.218613,10.133575 -0.595893,1.775129 -0.652657,3.051302 -0.193594,4.352419 0.640195,1.814511 1.898906,2.910238 3.879007,3.376747 0.818372,0.192802 5.593468,0.309333 5.593468,0.136501 z m 2.812111,-6.174641 c 0.373771,-0.515978 0.524499,-0.887833 0.379465,-0.936183 -0.337352,-0.11245 -1.108137,0.66002 -1.687925,1.691614 l -0.490732,0.873137 0.589562,-0.386296 c 0.324259,-0.212457 0.868592,-0.771488 1.20963,-1.242272 z m 56.49683,-11.855299 c -0.585637,-0.118149 -1.144417,-0.293493 -1.241736,-0.389644 -0.09732,-0.09615 0.429753,-0.382963 1.171272,-0.637354 1.760363,-0.603936 9.1212,-2.138855 9.1212,-1.902002 0,0.422217 -1.64991,1.96166 -2.64847,2.471142 -0.90888,0.463733 -1.4129,0.559796 -3.20789,0.611429 -1.17127,0.03372 -2.60874,-0.03541 -3.194376,-0.153571 z"
       id="path1"
       sodipodi:nodetypes="csssssssssscssscsssssssscsscsssssscsssscsssssssscsscscssssssscscssscscssssscscsssscscsssssssssssssssssscssscssssscssscscssssscssssssscssssssssssscssccsssssssssscssssssssssssssssscsssscsscsssssssssscsssssssssscssssscsssssssscsssssssscssssssscsssssssscsssscssssscssssssssssscsssssssssssssssssssscsscssssssscssssssssscssssscscssscsscsssssssssssssssssssssssssssscsscsssscssssssssscssssssscssscssscsscssscsssssssssccsssszsssssssssscssssssscssssssscss" /></g></svg>
